<svg width="16" height="16" viewBox="0 0 16 16" fill="none" xmlns="http://www.w3.org/2000/svg">
<path d="M7.99219 0.326172C7.85969 0.328242 7.73344 0.382817 7.64115 0.477909C7.54887 0.573002 7.4981 0.700836 7.5 0.833333V2.33333H5.16667C4.34417 2.33333 3.66667 3.01083 3.66667 3.83333V6.83333C3.66667 7.65583 4.34417 8.33333 5.16667 8.33333H10.8333C11.6558 8.33333 12.3333 7.65583 12.3333 6.83333V3.83333C12.3333 3.01083 11.6558 2.33333 10.8333 2.33333H8.5V0.833333C8.50096 0.766411 8.48848 0.699978 8.46329 0.63797C8.4381 0.575962 8.40072 0.519641 8.35336 0.472345C8.30601 0.42505 8.24964 0.387742 8.1876 0.362634C8.12556 0.337525 8.05911 0.325126 7.99219 0.326172ZM5.16667 3.33333H10.8333C11.1155 3.33333 11.3333 3.55117 11.3333 3.83333V6.83333C11.3333 7.1155 11.1155 7.33333 10.8333 7.33333H5.16667C4.8845 7.33333 4.66667 7.1155 4.66667 6.83333V3.83333C4.66667 3.55117 4.8845 3.33333 5.16667 3.33333ZM6.5 4.33333C6.27899 4.33333 6.06702 4.42113 5.91074 4.57741C5.75446 4.73369 5.66667 4.94565 5.66667 5.16667C5.66667 5.38768 5.75446 5.59964 5.91074 5.75592C6.06702 5.9122 6.27899 6 6.5 6C6.72101 6 6.93298 5.9122 7.08926 5.75592C7.24554 5.59964 7.33333 5.38768 7.33333 5.16667C7.33333 4.94565 7.24554 4.73369 7.08926 4.57741C6.93298 4.42113 6.72101 4.33333 6.5 4.33333ZM9.5 4.33333C9.27899 4.33333 9.06702 4.42113 8.91074 4.57741C8.75446 4.73369 8.66667 4.94565 8.66667 5.16667C8.66667 5.38768 8.75446 5.59964 8.91074 5.75592C9.06702 5.9122 9.27899 6 9.5 6C9.72101 6 9.93298 5.9122 10.0893 5.75592C10.2455 5.59964 10.3333 5.38768 10.3333 5.16667C10.3333 4.94565 10.2455 4.73369 10.0893 4.57741C9.93298 4.42113 9.72101 4.33333 9.5 4.33333ZM4.16667 9.33333C3.34417 9.33333 2.66667 10.0108 2.66667 10.8333V11.0879C2.66667 11.8696 2.98739 12.6205 3.5625 13.1562C4.33716 13.8775 5.73904 14.6667 8 14.6667C10.261 14.6667 11.6628 13.878 12.4375 13.1562C13.0125 12.6206 13.3333 11.8692 13.3333 11.0872V10.8333C13.3333 10.0108 12.6558 9.33333 11.8333 9.33333H4.16667ZM4.16667 10.3333H11.8333C12.1155 10.3333 12.3333 10.5512 12.3333 10.8333V11.0872C12.3333 11.5966 12.1262 12.0801 11.7565 12.4245C11.1479 12.9914 10.0337 13.6667 8 13.6667C5.9663 13.6667 4.85216 12.9912 4.24349 12.4245C3.87418 12.0802 3.66667 11.5967 3.66667 11.0879V10.8333C3.66667 10.5512 3.8845 10.3333 4.16667 10.3333Z" fill="white"/>
</svg>
